<svg version="1.2" xmlns="http://www.w3.org/2000/svg" width="1155" height="1155"><path fill-rule="evenodd" d="m611 1 28 1a255 255 0 0 1 48 4l11 2a280 280 0 0 1 43 10h1c-1 1 0 1 1 1h2l7 2 6 1 1 1 3 2 5 1 4 2a488 488 0 0 0 25 9l18 9a598 598 0 0 1 101 65l11 11a67 67 0 0 0 13 11c-1 0 1 3 4 5 2 3 5 5 5 4l1 1c-1 0 1 3 4 5l5 6 7 8 7 8 1 1 2 3 2 1 1 1c-1 1 0 2 1 3l2 2 3 6a494 494 0 0 1 52 88l7 18a407 407 0 0 1 20 241l-2 9-1 6v1l-2 4-1 7-3 10-2 9-2 4-1 4v1l-6 16a527 527 0 0 1-43 85l-8 13-4 8-1 1-4 5-3 6-2 2v3l-1 1c0-1-2 0-2 2l-1 3-1 1-2 1v3l-1 1-5 6-3 8-1 1v1l-1 1s-2 1-2 3l-1 4-1 1v1l-1 1-3 6c-2 3-3 7-2 7l-1 1-3 6-2 11-2 6-1 5v3l-2 9-1 20v14l1 9 1 15 2 11a456 456 0 0 0 10 37l2 4h1v3l1 1q2 0 1 1l1 7 3 5c1-1 1 0 0 0l1 3c1 1 2 2 1 3l2 3 1 1v3c1 1 1 2 2 1l1 1 1 5 3 4 1 1c-1 1 0 3 1 5l3 4h1l7 13a71 71 0 0 0 9 13l4 7 4 4 1 1 4 7 4 7h-24l-37 1-20 1-19 2-15 1-9 1-4 1-1 1h-8l-4 1-1 1-11 1-14 2-5 1h-3l-4 1-3 1-7 1a159 159 0 0 1-15 4l-3 1-7 1a320 320 0 0 1-22 6v1c-1-1-4 0-8 1s-6 1-5 2q1 2-1 1l-6 1-6 2-1 1h-2l-1 1h-3l-2 1-2 1h-2l-1 1-12 3-21 7a97 97 0 0 0-11 5 122 122 0 0 0-26 10l-3 1-2 2h-4q-3 1-2 2 0 2-1 1c-1-1-7 2-16 5l-13 7h-1c-2 0-2 0-1 1l-1 1h-3l-3 2-1 1-4 1c-2 1-3 1-2 2l-1 1h-3l-3 1-2 2-6 2-6 4-1 1c-1-1-3 0-4 1l-2 2-3 1-3 3-2 1-5 1-3 3v1c-1-1-4 0-11 4l-1-4-1-5v-1l-1-10-2-14-2-9a658 658 0 0 1-7-25v-3c0-1 0-2-1-1l-1-2v-2l-1-3-1-3-1-1v-1l-1-1-1-5-2-3-1-1v-3c-1-2-2-3-3-2v-4c-1-2-2-3-3-2v-3l-1-1q-2 1-1-1l-2-6a240 240 0 0 0-18-24h-1l-7-8-6-6-3-2-4-2h-1c1-1-1-2-2-3l-4-2-2-2-7-4c-3-2-6-3-7-2l-2-2-3-1h-2l-1-2h-5l-5-1-4-1-4-1-11-1c-5-1-11 0-22 1a396 396 0 0 0-22 3h-3l-3 1-1 1h-4c-2 0-3 0-2 1l-1 1-9 1a220 220 0 0 1-15 3l-1 1h-8l-7 2h-4l-4 1h-17a161 161 0 0 1-29-4l-7-2-9-4-8-3v-1l-1-1h-2l-1-1-1-2-3-1-1-1-1-2-3-1-1-1-3-4c-2-2-3-4-5-2l1-1c1-1-1-4-3-7l-4-7-1-1-1-1a99 99 0 0 0-4-16v-15l2-25c2-7 2-16 2-21l-1-14c-1-3-2-5-3-4l-1-1c1-1-1-4-3-6l-5-5-1-1-2-4-3-4v-7c0-5 1-8 3-11l2-4 1-1 1-1c0-1-3-5-7-8a203 203 0 0 1-15-13l-1-5 1-5 3-5 3-12 2-14-1-11-2-3-1-1c1-1 0-4-2-6l-6-6c-2-2-5-3-5-2q-2 1-1-1 1-1-3-2a83 83 0 0 0-28-5h-8l-6-1a90 90 0 0 1-20-6l-8-5-6-3v-1c1 0 0-2-2-3l-4-7c-2-4-3-6-2-12 0-8 0-9 4-18a714 714 0 0 1 37-66 86 86 0 0 0 10-19l3-3 19-34 19-35c3-6 3-7 2-11a238 238 0 0 1-6-30l-1-6-1-28a902 902 0 0 0 0-29l2-11 2-17 2-13a135 135 0 0 1 5-22 596 596 0 0 1 8-31q-1-1 1-1h1l7-18a504 504 0 0 1 61-105l2-2 1-3h1l2-2 2-2 3-4 4-4 12-12 11-13 1-1h2v-2l1-1 5-3 4-5v-1c1 1 4-2 7-5a59 59 0 0 1 10-8l2-1-1-1h2l3-2 1-2v-1h3c1-1 2-1 1-2l1-1h2c1-1 2-1 1-2l1-1h2c1-1 2-1 1-2l1-1h2v-1l1-1 12-7a313 313 0 0 1 32-19l11-6 4-2 2-1 1-1a347 347 0 0 0 35-15l8-3 7-3 3-1a105 105 0 0 0 20-7h5l4-2h1l7-1 9-3a280 280 0 0 1 33-7l1-1h11l9-2 4-1h18l16-1h8zM510 110l7 5 2 3c1 1 1 1 5-3l5-5-4-5-5-4-5 5zm247 6-2 5-6 8-10 7-10 4-4 1 4 2 5 1 4 2 7 3 4 5 3 2h1l2 6a122 122 0 0 1 5 10h1c1 1 1 1 2-2l3-8 7-9 5-4 1-1 5-3 6-2 1-1c1-1-1-2-5-3-5-2-8-4-12-8l-10-13-4-7-2 2-1 3zm-315 24-5 10-5 8a58 58 0 0 1-20 13l-8 3 2 1 3 1 2 1 8 3 11 8a46 46 0 0 1 11 20l3 4h1a159 159 0 0 1 8-16c1-3 5-7 7-9l11-7a435 435 0 0 0 13-6l-6-3a53 53 0 0 1-18-9c-2-1-6-6-8-11l-5-10-1-5c-2-3-2-3-3-1l-2 5zm395 40c9 9 9 9 11 7l5-4 2-2-9-10-5 5zm-298 22 10 9c7-7 7-7 6-10l-4-6-3-2zm157 20 8 7 2 3 9-9-10-10-5 5zm-86 27-3 5-1 2-1 1-2 1-4 3-5 2-4 2c-1 2-1 2 2 3a44 44 0 0 1 13 11l4 7 2 3 1 2c0 2 0 2 2 0a1248 1248 0 0 0 8-14l9-6 6-4-5-3-8-5c-2-1-5-4-6-7l-3-6-1-3c-2-2-2-2-3 1l-1 5zm-207 12a200 200 0 0 1-17 2 324 324 0 0 0-38 14 283 283 0 0 0-23 12l-9 7a186 186 0 0 0-43 50 135 135 0 0 1-7 13l-3 9a87 87 0 0 0-8 24l-2 12-2 26a220 220 0 0 0 3 36 283 283 0 0 1 7 24l3 9 6 14a255 255 0 0 0 28 39 228 228 0 0 0 27 23 379 379 0 0 0 42 21 277 277 0 0 0 46 8 211 211 0 0 0 71-9 131 131 0 0 0 15-6l3-1 2-1 7-3 8-4 7-4a467 467 0 0 0 35-25l8-6 11-10 14-14 16-15 25-24 33-32 26-24c4-4 13-14 22-21a1527 1527 0 0 1 46-40l15-8 10-5 7-2 9-2a148 148 0 0 1 38 0 388 388 0 0 0 17 4l6 3 4 2 6 4c3 2 5 3 6 2v1l3 5a141 141 0 0 1 14 15l5 10c3 5 6 13 6 17 2 5 2 12 2 21l-2 20-2 10c-1 1-3 4-3 7l-4 7-6 8c-1 3-5 8-9 11l-16 12c-5 3-11 6-14 6a174 174 0 0 1-55 3l-9-2-7-3-9-4-7-4-6-3-7-5-5-4-5-4-7-6-10-9-8-6-6-7-5-4-17 16a261 261 0 0 1-16 15l-14 13-8 9-2 1-1 1-2 2c-2 2-2 2 2 7a180 180 0 0 0 23 22l7 6a592 592 0 0 1 18 14l10 7 7 4 3 2 3 2a377 377 0 0 0 52 22l11 2 10 2a255 255 0 0 0 57 0l10-2a593 593 0 0 0 20-5l7-3a208 208 0 0 1 16-7l6-4 11-7a191 191 0 0 0 39-37l3-5c0-2 1-3 2-3l3-5 4-6 3-5 2-5 2-4 5-14a173 173 0 0 0 8-31 261 261 0 0 0-3-72l-4-13a287 287 0 0 0-19-37l-5-9a239 239 0 0 0-16-17 138 138 0 0 0-24-20l-7-6a258 258 0 0 0-49-20 202 202 0 0 0-116 9l-5 3-4 2-4 1a170 170 0 0 1-20 11l-8 5-6 5-4 3-1 1-5 3a395 395 0 0 0-40 35l-31 30-28 27-19 18-22 21-20 19-19 18a656 656 0 0 0-22 18l-1 1-7 5-8 5-2 1-3 2-4 2a81 81 0 0 1-25 7 179 179 0 0 1-48-3l-1-1-8-3a89 89 0 0 1-25-17l-5-7-3-4-5-6-4-10c-2-2-3-7-4-9l-2-9-1-17a185 185 0 0 1 4-28l3-7 2-4 1-1 2-3 4-7a251 251 0 0 1 16-16l10-7 9-5 15-4c8-2 12-3 21-3l18 1 12 3 11 4a244 244 0 0 1 20 11l11 9a386 386 0 0 1 30 26l10 10 3 2 15-14 28-27 19-19-10-10-12-12-11-10-11-9-6-5-3-3-5-3-5-4-4-2-3-2a577 577 0 0 0-25-14 230 230 0 0 0-55-17 462 462 0 0 0-46 0zm225 326 1 1 5 4 4 3 9-8-10-10-5 4-4 6zm49 46-4 7c-2 3-6 5-11 8l-7 4c0 1 3 3 7 4 6 3 8 5 10 8l3 4 3 5 2 6 2 2 1-4 2-6 5-6c1-3 4-5 6-6l7-4c3-2 3-2 2-3l-6-4-7-4-2-4-1-1-3-5-3-7-1-2s-2 1-2 3l-2 5z" style="fill:#000"/></svg>